<svg width="19" height="16" fill="none" xmlns="http://www.w3.org/2000/svg"><path fill-rule="evenodd" clip-rule="evenodd" d="M8.91 4.66l-.04-.652c-.119-1.69.924-3.232 2.574-3.83.607-.213 1.636-.24 2.31-.053.264.08.765.345 1.122.585l.646.438.713-.226c.396-.12.924-.319 1.162-.452.224-.12.422-.186.422-.146 0 .226-.488.997-.897 1.423-.555.598-.396.651.726.252.673-.226.686-.226.554.027-.08.133-.489.599-.924 1.024-.74.732-.779.811-.779 1.423 0 .944-.449 2.912-.897 3.99-.832 2.02-2.614 4.109-4.396 5.16-2.508 1.475-5.847 1.848-8.659.983C1.61 14.314 0 13.57 0 13.436c0-.04.488-.093 1.082-.106a7.443 7.443 0 003.538-.985l.713-.425-.819-.28c-1.161-.398-2.204-1.316-2.468-2.18-.08-.28-.053-.293.686-.293l.766-.013-.647-.306c-.766-.386-1.465-1.037-1.808-1.702C.792 6.667.475 5.457.568 5.364c.026-.04.303.04.62.146.91.333 1.03.253.502-.306C.7 4.194.396 2.691.87 1.268L1.096.63l.87.864C3.75 3.236 5.848 4.274 8.25 4.58l.66.08z" fill="#00ACEE"/></svg>