<svg width="1172" height="582" fill="none" xmlns="http://www.w3.org/2000/svg"><path d="M76.601 321.686c-102.852-6.589-98.73-118.291-.001-221.737 212.236-189.417 433.508-55.59 457.996 0 24.489 55.59-19.24 102.322-166.172 87.91-146.932-14.413-163.257 142.062-291.823 133.827z" stroke="#fff" stroke-width="1.5"/><path d="M258.629 210.834c-5.99-13.523 7.37-32.855 29.841-43.179 22.471-10.324 45.544-7.731 51.534 5.792 5.991 13.523-7.37 32.855-29.841 43.179-22.471 10.324-45.544 7.731-51.534-5.792zm347.84 368.982c-15.608-5.869-20.162-31.914-10.171-58.174 9.99-26.26 30.742-42.789 46.35-36.92s20.161 31.914 10.171 58.174c-9.991 26.26-30.742 42.789-46.35 36.92zm192.23-484.719C778.516-4.41 884.541-28.45 1007.07 39.59c232.42 154.513 163.4 398.541 117.44 435.757-45.96 37.215-101.09 7.308-125.22-136.097-24.134-143.405-175.362-119.767-200.591-244.152z" stroke="#fff" stroke-width="1.5"/></svg>